<svg width="204" height="54" viewBox="0 0 204 54" fill="none" xmlns="http://www.w3.org/2000/svg">
<g filter="url(#filter0_ddiii_15052_323)">
<g clip-path="url(#clip0_15052_323)">
<rect x="3" width="48" height="48" rx="12" fill="#34A293"/>
<rect width="48" height="48" transform="translate(3)" fill="url(#paint0_linear_15052_323)"/>
<g filter="url(#filter1_d_15052_323)">
<path opacity="0.4" d="M43.3504 21.9276C41.7913 23.4867 39.2636 23.4867 37.7045 21.9276C36.1454 20.3685 36.1454 17.8407 37.7045 16.2816C39.2636 14.7225 41.7913 14.7225 43.3504 16.2816C44.9095 17.8407 44.9095 20.3685 43.3504 21.9276Z" fill="url(#paint1_linear_15052_323)"/>
<path opacity="0.6" d="M43.3456 21.9267C41.7865 23.4858 39.2587 23.4858 37.6996 21.9267L32.1239 16.351C30.5648 14.7919 28.037 14.7919 26.4779 16.351C24.9188 17.91 24.9188 20.4378 26.4779 21.9969L32.0536 27.5726C33.6127 29.1317 36.1405 29.1317 37.6996 27.5726L43.3456 21.9267Z" fill="url(#paint2_linear_15052_323)"/>
<path d="M37.7003 27.5739C36.1412 29.133 33.6134 29.133 32.0544 27.5739L21.2329 16.7524C19.1541 14.6737 15.7838 14.6737 13.705 16.7524L9 21.4574C10.5591 19.8983 13.0869 19.8983 14.646 21.4574L26.4084 33.2198C27.9675 34.7789 30.4953 34.7789 32.0544 33.2198L37.7003 27.5739Z" fill="url(#paint3_linear_15052_323)"/>
</g>
</g>
<rect x="4" y="1" width="46" height="46" rx="11" stroke="url(#paint4_linear_15052_323)" stroke-width="2"/>
</g>
<path d="M76.0623 27.3316L74.7057 27.7951L79.9082 14.3541C80.0854 13.886 80.2905 13.5629 80.5236 13.385C80.766 13.2071 81.0923 13.1182 81.5026 13.1182H85.5723C85.852 13.1182 86.0571 13.1743 86.1877 13.2867C86.3275 13.3897 86.3974 13.5395 86.3974 13.7361C86.3974 13.9047 86.3508 14.0451 86.2576 14.1575C86.1737 14.2699 86.0291 14.3541 85.824 14.4103L85.0828 14.6069C84.7751 14.6912 84.5654 14.8176 84.4535 14.9861C84.3509 15.1453 84.309 15.4122 84.3276 15.7867L85.4045 30.3232C85.4231 30.6416 85.4884 30.8663 85.6003 30.9974C85.7121 31.1191 85.9033 31.2174 86.1737 31.2923L86.9009 31.489C87.0874 31.5451 87.2226 31.6294 87.3065 31.7418C87.3904 31.8448 87.4323 31.9758 87.4323 32.135C87.4323 32.3223 87.3671 32.4768 87.2365 32.5985C87.106 32.7202 86.9009 32.7811 86.6212 32.7811H79.8663C79.5773 32.7811 79.3628 32.7249 79.223 32.6125C79.0924 32.5002 79.0272 32.3504 79.0272 32.1631C79.0272 32.0039 79.0691 31.8682 79.153 31.7558C79.2463 31.6434 79.4001 31.5545 79.6146 31.489L80.3418 31.2923C80.6681 31.2081 80.8826 31.0957 80.9851 30.9552C81.097 30.8148 81.1483 30.6041 81.139 30.3232L79.9782 15.4496L81.2089 15.3654L75.2651 30.8569C75.1066 31.297 74.9388 31.5826 74.7616 31.7137C74.5938 31.8354 74.3934 31.8963 74.1603 31.8963C73.9925 31.8963 73.8386 31.8728 73.6988 31.826C73.5589 31.7792 73.4284 31.6809 73.3072 31.5311C73.186 31.3719 73.0601 31.1285 72.9296 30.8007L66.8599 15.7727L68.0627 15.3232L66.846 29.8738C66.8087 30.2764 66.8926 30.5807 67.0977 30.7867C67.3028 30.9927 67.5872 31.1706 67.9508 31.3204L68.6641 31.5592C68.8039 31.6154 68.9158 31.6903 68.9997 31.7839C69.0836 31.8682 69.1256 31.9852 69.1256 32.135C69.1256 32.3316 69.0556 32.4908 68.9158 32.6125C68.7853 32.7249 68.5801 32.7811 68.3004 32.7811H63.8111C63.5408 32.7811 63.3356 32.7249 63.1958 32.6125C63.0653 32.5002 63 32.3504 63 32.1631C63 31.9758 63.0559 31.8307 63.1678 31.7277C63.289 31.6247 63.4429 31.5358 63.6293 31.4609L64.2027 31.2783C64.5291 31.1659 64.7855 31.0021 64.9719 30.7867C65.1677 30.5713 65.2843 30.2624 65.3216 29.8597L66.4823 16.0816C66.5196 15.6322 66.473 15.2951 66.3425 15.0704C66.2213 14.8457 66.0022 14.6912 65.6852 14.6069L64.9859 14.4384C64.7808 14.3728 64.627 14.2886 64.5244 14.1856C64.4312 14.0732 64.3845 13.9281 64.3845 13.7502C64.3845 13.3288 64.6643 13.1182 65.2237 13.1182H69.2514C69.6337 13.1182 69.9414 13.1978 70.1745 13.3569C70.4169 13.5067 70.6267 13.8204 70.8038 14.2979L76.0623 27.3316Z" fill="white"/>
<path d="M97.6528 31.0255V30.7446L97.387 30.6884V22.2755C97.387 21.6107 97.2192 21.1004 96.8836 20.7446C96.5572 20.3794 96.0957 20.1968 95.499 20.1968C94.9396 20.1968 94.5107 20.3185 94.2124 20.562C93.9233 20.8054 93.7788 21.0957 93.7788 21.4328V22.6687C93.7788 23.2305 93.5924 23.6659 93.2194 23.9749C92.8465 24.2745 92.3244 24.4243 91.6531 24.4243C91.0843 24.4243 90.6508 24.2886 90.3524 24.017C90.0634 23.7455 89.9189 23.3663 89.9189 22.8794C89.9189 22.2989 90.1566 21.7277 90.6321 21.1659C91.117 20.6041 91.8256 20.1406 92.7579 19.7755C93.6903 19.4103 94.8371 19.2277 96.1983 19.2277C97.9045 19.2277 99.1725 19.5742 100.002 20.267C100.832 20.9599 101.247 21.9009 101.247 23.0901V30.3934C101.247 30.6556 101.298 30.8522 101.401 30.9833C101.513 31.1144 101.667 31.18 101.862 31.18C102.067 31.18 102.221 31.1331 102.324 31.0395C102.426 30.9365 102.515 30.8335 102.59 30.7305C102.636 30.665 102.687 30.6135 102.743 30.576C102.799 30.5292 102.865 30.5058 102.939 30.5058C103.051 30.5058 103.13 30.5479 103.177 30.6322C103.233 30.7165 103.261 30.8242 103.261 30.9552C103.261 31.2642 103.149 31.5873 102.925 31.9243C102.711 32.2521 102.389 32.533 101.96 32.767C101.531 33.0011 100.995 33.1182 100.352 33.1182C99.5221 33.1182 98.8648 32.9309 98.38 32.5564C97.8952 32.1818 97.6528 31.6715 97.6528 31.0255ZM89.3175 29.8457C89.3175 28.694 89.8303 27.7624 90.8559 27.0507C91.8908 26.3298 93.3406 25.9693 95.2053 25.9693C95.8114 25.9693 96.3521 26.0208 96.8276 26.1238C97.3125 26.2268 97.732 26.3672 98.0863 26.5451L97.7926 27.4019C97.4756 27.2521 97.1493 27.135 96.8136 27.0507C96.4873 26.9665 96.1284 26.9243 95.7368 26.9243C94.9722 26.9243 94.3755 27.1257 93.9467 27.5283C93.5178 27.9309 93.3033 28.488 93.3033 29.1996C93.3033 29.9112 93.4851 30.4543 93.8488 30.8288C94.2217 31.2034 94.7019 31.3906 95.2892 31.3906C95.7834 31.3906 96.2589 31.2783 96.7157 31.0536C97.1726 30.8195 97.5595 30.5011 97.8765 30.0985L98.1702 30.8569C97.6667 31.5779 96.9861 32.135 96.1284 32.5283C95.2706 32.9215 94.3616 33.1182 93.4012 33.1182C92.1892 33.1182 91.2055 32.8185 90.4503 32.2193C89.6951 31.62 89.3175 30.8288 89.3175 29.8457Z" fill="white"/>
<path d="M110.189 20.1266V30.6041C110.189 30.885 110.226 31.091 110.301 31.2221C110.385 31.3532 110.506 31.4468 110.664 31.503L111.196 31.6575C111.475 31.7699 111.615 31.9478 111.615 32.1912C111.615 32.5845 111.368 32.7811 110.874 32.7811H105.462C105.21 32.7811 105.024 32.7343 104.902 32.6406C104.791 32.5376 104.735 32.3972 104.735 32.2193C104.735 32.0882 104.772 31.9758 104.846 31.8822C104.93 31.7886 105.061 31.7137 105.238 31.6575L105.797 31.503C105.965 31.4468 106.086 31.3579 106.161 31.2361C106.245 31.1051 106.287 30.8991 106.287 30.6182V22.444C106.287 22.2099 106.25 22.0461 106.175 21.9524C106.11 21.8494 105.998 21.7839 105.839 21.7558L105.098 21.6996C104.93 21.6715 104.809 21.6154 104.735 21.5311C104.669 21.4468 104.637 21.3438 104.637 21.2221C104.637 21.0723 104.679 20.9552 104.763 20.871C104.856 20.7773 105.019 20.6837 105.252 20.5901L107.937 19.635C108.273 19.5039 108.543 19.4103 108.748 19.3541C108.953 19.2979 109.149 19.2698 109.336 19.2698C109.615 19.2698 109.825 19.3494 109.965 19.5086C110.114 19.6678 110.189 19.8738 110.189 20.1266ZM109.755 23.2446L109.154 22.6125L109.699 22.121C110.855 21.0723 111.848 20.3279 112.678 19.8878C113.508 19.4384 114.296 19.2137 115.042 19.2137C116.17 19.2137 117.046 19.5929 117.671 20.3513C118.305 21.1097 118.687 22.1257 118.818 23.3991L119.615 30.576C119.652 30.8663 119.704 31.0816 119.769 31.2221C119.843 31.3625 119.969 31.4609 120.146 31.517L120.65 31.6575C120.818 31.7137 120.939 31.7886 121.013 31.8822C121.097 31.9758 121.139 32.0882 121.139 32.2193C121.139 32.3972 121.083 32.5376 120.972 32.6406C120.86 32.7343 120.673 32.7811 120.412 32.7811H114.944C114.45 32.7811 114.203 32.5845 114.203 32.1912C114.203 31.9478 114.342 31.7699 114.622 31.6575L115.168 31.503C115.354 31.4468 115.494 31.3532 115.587 31.2221C115.68 31.0816 115.708 30.8663 115.671 30.576L114.93 23.9609C114.837 23.1463 114.632 22.5376 114.315 22.135C113.998 21.723 113.527 21.517 112.902 21.517C112.52 21.517 112.109 21.62 111.671 21.826C111.242 22.032 110.79 22.341 110.315 22.753L109.755 23.2446Z" fill="white"/>
<path d="M130.841 31.0255V30.7446L130.575 30.6884V22.2755C130.575 21.6107 130.407 21.1004 130.071 20.7446C129.745 20.3794 129.284 20.1968 128.687 20.1968C128.127 20.1968 127.699 20.3185 127.4 20.562C127.111 20.8054 126.967 21.0957 126.967 21.4328V22.6687C126.967 23.2305 126.78 23.6659 126.407 23.9749C126.034 24.2745 125.512 24.4243 124.841 24.4243C124.272 24.4243 123.839 24.2886 123.54 24.017C123.251 23.7455 123.107 23.3663 123.107 22.8794C123.107 22.2989 123.344 21.7277 123.82 21.1659C124.305 20.6041 125.013 20.1406 125.946 19.7755C126.878 19.4103 128.025 19.2277 129.386 19.2277C131.092 19.2277 132.36 19.5742 133.19 20.267C134.02 20.9599 134.435 21.9009 134.435 23.0901V30.3934C134.435 30.6556 134.486 30.8522 134.589 30.9833C134.701 31.1144 134.854 31.18 135.05 31.18C135.255 31.18 135.409 31.1331 135.512 31.0395C135.614 30.9365 135.703 30.8335 135.777 30.7305C135.824 30.665 135.875 30.6135 135.931 30.576C135.987 30.5292 136.052 30.5058 136.127 30.5058C136.239 30.5058 136.318 30.5479 136.365 30.6322C136.421 30.7165 136.449 30.8242 136.449 30.9552C136.449 31.2642 136.337 31.5873 136.113 31.9243C135.899 32.2521 135.577 32.533 135.148 32.767C134.719 33.0011 134.183 33.1182 133.54 33.1182C132.71 33.1182 132.053 32.9309 131.568 32.5564C131.083 32.1818 130.841 31.6715 130.841 31.0255ZM122.505 29.8457C122.505 28.694 123.018 27.7624 124.044 27.0507C125.079 26.3298 126.528 25.9693 128.393 25.9693C128.999 25.9693 129.54 26.0208 130.015 26.1238C130.5 26.2268 130.92 26.3672 131.274 26.5451L130.98 27.4019C130.663 27.2521 130.337 27.135 130.001 27.0507C129.675 26.9665 129.316 26.9243 128.925 26.9243C128.16 26.9243 127.563 27.1257 127.134 27.5283C126.706 27.9309 126.491 28.488 126.491 29.1996C126.491 29.9112 126.673 30.4543 127.037 30.8288C127.41 31.2034 127.89 31.3906 128.477 31.3906C128.971 31.3906 129.447 31.2783 129.904 31.0536C130.36 30.8195 130.747 30.5011 131.064 30.0985L131.358 30.8569C130.855 31.5779 130.174 32.135 129.316 32.5283C128.458 32.9215 127.549 33.1182 126.589 33.1182C125.377 33.1182 124.393 32.8185 123.638 32.2193C122.883 31.62 122.505 30.8288 122.505 29.8457Z" fill="white"/>
<path d="M143.377 20.1266V30.6041C143.377 30.885 143.414 31.091 143.489 31.2221C143.572 31.3532 143.694 31.4468 143.852 31.503L144.384 31.6575C144.663 31.7699 144.803 31.9478 144.803 32.1912C144.803 32.5845 144.556 32.7811 144.062 32.7811H138.65C138.398 32.7811 138.211 32.7343 138.09 32.6406C137.978 32.5376 137.922 32.3972 137.922 32.2193C137.922 32.0882 137.96 31.9758 138.034 31.8822C138.118 31.7886 138.249 31.7137 138.426 31.6575L138.985 31.503C139.153 31.4468 139.274 31.3579 139.349 31.2361C139.433 31.1051 139.475 30.8991 139.475 30.6182V22.444C139.475 22.2099 139.437 22.0461 139.363 21.9524C139.298 21.8494 139.186 21.7839 139.027 21.7558L138.286 21.6996C138.118 21.6715 137.997 21.6154 137.922 21.5311C137.857 21.4468 137.824 21.3438 137.824 21.2221C137.824 21.0723 137.866 20.9552 137.95 20.871C138.044 20.7773 138.207 20.6837 138.44 20.5901L141.125 19.635C141.461 19.5039 141.731 19.4103 141.936 19.3541C142.141 19.2979 142.337 19.2698 142.524 19.2698C142.803 19.2698 143.013 19.3494 143.153 19.5086C143.302 19.6678 143.377 19.8738 143.377 20.1266ZM142.943 23.2446L142.342 22.6125L142.887 22.121C144.043 21.0723 145.036 20.3279 145.866 19.8878C146.696 19.4384 147.484 19.2137 148.23 19.2137C149.358 19.2137 150.234 19.5929 150.859 20.3513C151.493 21.1097 151.875 22.1257 152.006 23.3991L152.803 30.576C152.84 30.8663 152.891 31.0816 152.957 31.2221C153.031 31.3625 153.157 31.4609 153.334 31.517L153.838 31.6575C154.005 31.7137 154.127 31.7886 154.201 31.8822C154.285 31.9758 154.327 32.0882 154.327 32.2193C154.327 32.3972 154.271 32.5376 154.159 32.6406C154.047 32.7343 153.861 32.7811 153.6 32.7811H148.132C147.638 32.7811 147.39 32.5845 147.39 32.1912C147.39 31.9478 147.53 31.7699 147.81 31.6575L148.355 31.503C148.542 31.4468 148.682 31.3532 148.775 31.2221C148.868 31.0816 148.896 30.8663 148.859 30.576L148.118 23.9609C148.024 23.1463 147.819 22.5376 147.502 22.135C147.185 21.723 146.714 21.517 146.09 21.517C145.708 21.517 145.297 21.62 144.859 21.826C144.43 22.032 143.978 22.341 143.503 22.753L142.943 23.2446Z" fill="white"/>
<path d="M161.05 20.1266V30.6041C161.05 30.885 161.087 31.091 161.161 31.2221C161.245 31.3532 161.366 31.4468 161.525 31.503L162.056 31.6575C162.336 31.7699 162.476 31.9478 162.476 32.1912C162.476 32.5845 162.229 32.7811 161.735 32.7811H156.322C156.071 32.7811 155.884 32.7343 155.763 32.6406C155.651 32.5376 155.595 32.3972 155.595 32.2193C155.595 32.0882 155.633 31.9758 155.707 31.8822C155.791 31.7886 155.922 31.7137 156.099 31.6575L156.658 31.503C156.826 31.4468 156.947 31.3579 157.022 31.2361C157.106 31.1051 157.148 30.8991 157.148 30.6182V22.444C157.148 22.2099 157.11 22.0461 157.036 21.9524C156.97 21.8494 156.859 21.7839 156.7 21.7558L155.959 21.6996C155.791 21.6715 155.67 21.6154 155.595 21.5311C155.53 21.4468 155.497 21.3438 155.497 21.2221C155.497 21.0723 155.539 20.9552 155.623 20.871C155.716 20.7773 155.88 20.6837 156.113 20.5901L158.798 19.635C159.134 19.5039 159.404 19.4103 159.609 19.3541C159.814 19.2979 160.01 19.2698 160.196 19.2698C160.476 19.2698 160.686 19.3494 160.826 19.5086C160.975 19.6678 161.05 19.8738 161.05 20.1266ZM160.616 23.2446L160.015 22.6125L160.56 22.121C161.716 21.0723 162.709 20.3279 163.539 19.8878C164.369 19.4384 165.157 19.2137 165.902 19.2137C167.031 19.2137 167.907 19.5929 168.532 20.3513C169.166 21.1097 169.548 22.1257 169.678 23.3991L170.476 30.576C170.513 30.8663 170.564 31.0816 170.629 31.2221C170.704 31.3625 170.83 31.4609 171.007 31.517L171.511 31.6575C171.678 31.7137 171.8 31.7886 171.874 31.8822C171.958 31.9758 172 32.0882 172 32.2193C172 32.3972 171.944 32.5376 171.832 32.6406C171.72 32.7343 171.534 32.7811 171.273 32.7811H165.805C165.31 32.7811 165.063 32.5845 165.063 32.1912C165.063 31.9478 165.203 31.7699 165.483 31.6575L166.028 31.503C166.215 31.4468 166.355 31.3532 166.448 31.2221C166.541 31.0816 166.569 30.8663 166.532 30.576L165.791 23.9609C165.697 23.1463 165.492 22.5376 165.175 22.135C164.858 21.723 164.387 21.517 163.763 21.517C163.38 21.517 162.97 21.62 162.532 21.826C162.103 22.032 161.651 22.341 161.175 22.753L160.616 23.2446Z" fill="white"/>
<defs>
<filter id="filter0_ddiii_15052_323" x="0" y="-3" width="54" height="57" filterUnits="userSpaceOnUse" color-interpolation-filters="sRGB">
<feFlood flood-opacity="0" result="BackgroundImageFix"/>
<feColorMatrix in="SourceAlpha" type="matrix" values="0 0 0 0 0 0 0 0 0 0 0 0 0 0 0 0 0 0 127 0" result="hardAlpha"/>
<feOffset dy="1"/>
<feGaussianBlur stdDeviation="0.5"/>
<feComposite in2="hardAlpha" operator="out"/>
<feColorMatrix type="matrix" values="0 0 0 0 0.162923 0 0 0 0 0.162923 0 0 0 0 0.162923 0 0 0 0.08 0"/>
<feBlend mode="normal" in2="BackgroundImageFix" result="effect1_dropShadow_15052_323"/>
<feColorMatrix in="SourceAlpha" type="matrix" values="0 0 0 0 0 0 0 0 0 0 0 0 0 0 0 0 0 0 127 0" result="hardAlpha"/>
<feMorphology radius="1" operator="erode" in="SourceAlpha" result="effect2_dropShadow_15052_323"/>
<feOffset dy="3"/>
<feGaussianBlur stdDeviation="2"/>
<feComposite in2="hardAlpha" operator="out"/>
<feColorMatrix type="matrix" values="0 0 0 0 0.164706 0 0 0 0 0.164706 0 0 0 0 0.164706 0 0 0 0.14 0"/>
<feBlend mode="normal" in2="effect1_dropShadow_15052_323" result="effect2_dropShadow_15052_323"/>
<feBlend mode="normal" in="SourceGraphic" in2="effect2_dropShadow_15052_323" result="shape"/>
<feColorMatrix in="SourceAlpha" type="matrix" values="0 0 0 0 0 0 0 0 0 0 0 0 0 0 0 0 0 0 127 0" result="hardAlpha"/>
<feOffset dy="-3"/>
<feGaussianBlur stdDeviation="1.5"/>
<feComposite in2="hardAlpha" operator="arithmetic" k2="-1" k3="1"/>
<feColorMatrix type="matrix" values="0 0 0 0 0 0 0 0 0 0 0 0 0 0 0 0 0 0 0.1 0"/>
<feBlend mode="normal" in2="shape" result="effect3_innerShadow_15052_323"/>
<feColorMatrix in="SourceAlpha" type="matrix" values="0 0 0 0 0 0 0 0 0 0 0 0 0 0 0 0 0 0 127 0" result="hardAlpha"/>
<feOffset dy="3"/>
<feGaussianBlur stdDeviation="1.5"/>
<feComposite in2="hardAlpha" operator="arithmetic" k2="-1" k3="1"/>
<feColorMatrix type="matrix" values="0 0 0 0 1 0 0 0 0 1 0 0 0 0 1 0 0 0 0.1 0"/>
<feBlend mode="normal" in2="effect3_innerShadow_15052_323" result="effect4_innerShadow_15052_323"/>
<feColorMatrix in="SourceAlpha" type="matrix" values="0 0 0 0 0 0 0 0 0 0 0 0 0 0 0 0 0 0 127 0" result="hardAlpha"/>
<feMorphology radius="1" operator="erode" in="SourceAlpha" result="effect5_innerShadow_15052_323"/>
<feOffset/>
<feComposite in2="hardAlpha" operator="arithmetic" k2="-1" k3="1"/>
<feColorMatrix type="matrix" values="0 0 0 0 0 0 0 0 0 0 0 0 0 0 0 0 0 0 0.2 0"/>
<feBlend mode="normal" in2="effect4_innerShadow_15052_323" result="effect5_innerShadow_15052_323"/>
</filter>
<filter id="filter1_d_15052_323" x="6" y="5.25" width="42" height="42" filterUnits="userSpaceOnUse" color-interpolation-filters="sRGB">
<feFlood flood-opacity="0" result="BackgroundImageFix"/>
<feColorMatrix in="SourceAlpha" type="matrix" values="0 0 0 0 0 0 0 0 0 0 0 0 0 0 0 0 0 0 127 0" result="hardAlpha"/>
<feMorphology radius="1.5" operator="erode" in="SourceAlpha" result="effect1_dropShadow_15052_323"/>
<feOffset dy="2.25"/>
<feGaussianBlur stdDeviation="2.25"/>
<feComposite in2="hardAlpha" operator="out"/>
<feColorMatrix type="matrix" values="0 0 0 0 0.141176 0 0 0 0 0.141176 0 0 0 0 0.141176 0 0 0 0.1 0"/>
<feBlend mode="normal" in2="BackgroundImageFix" result="effect1_dropShadow_15052_323"/>
<feBlend mode="normal" in="SourceGraphic" in2="effect1_dropShadow_15052_323" result="shape"/>
</filter>
<linearGradient id="paint0_linear_15052_323" x1="24" y1="5.96047e-07" x2="26" y2="48" gradientUnits="userSpaceOnUse">
<stop stop-color="white" stop-opacity="0"/>
<stop offset="1" stop-color="white" stop-opacity="0.12"/>
</linearGradient>
<linearGradient id="paint1_linear_15052_323" x1="40.5275" y1="15.1123" x2="40.5275" y2="23.0969" gradientUnits="userSpaceOnUse">
<stop stop-color="white" stop-opacity="0.8"/>
<stop offset="1" stop-color="white" stop-opacity="0.5"/>
</linearGradient>
<linearGradient id="paint2_linear_15052_323" x1="34.3271" y1="15.1816" x2="34.3271" y2="28.742" gradientUnits="userSpaceOnUse">
<stop stop-color="white" stop-opacity="0.8"/>
<stop offset="1" stop-color="white" stop-opacity="0.5"/>
</linearGradient>
<linearGradient id="paint3_linear_15052_323" x1="23.3502" y1="15.1934" x2="23.3502" y2="34.3892" gradientUnits="userSpaceOnUse">
<stop stop-color="white" stop-opacity="0.8"/>
<stop offset="1" stop-color="white" stop-opacity="0.5"/>
</linearGradient>
<linearGradient id="paint4_linear_15052_323" x1="27" y1="0" x2="27" y2="48" gradientUnits="userSpaceOnUse">
<stop stop-color="white" stop-opacity="0.12"/>
<stop offset="1" stop-color="white" stop-opacity="0"/>
</linearGradient>
<clipPath id="clip0_15052_323">
<rect x="3" width="48" height="48" rx="12" fill="white"/>
</clipPath>
</defs>
</svg>
